<svg xmlns="http://www.w3.org/2000/svg" version="1.1">
<rect x="0" y="0" width="100" height="20" style="fill:white;stroke:black;stroke-width:2"/>
<text x="50" y="15" text-anchor="middle" style="font-family: Arial, Helvetica, sans-serif">
(x38,1)</text>
<line x1="50" y1="20" x2="50" y2="800" style="stroke:black;stroke-width:2" />
<rect x="25" y="800" width="50" height="10" style="fill:black;stroke:black;stroke-width:2"/>
<rect x="204" y="0" width="100" height="20" style="fill:white;stroke:black;stroke-width:2"/>
<text x="254" y="15" text-anchor="middle" style="font-family: Arial, Helvetica, sans-serif">
i</text>
<line x1="254" y1="20" x2="254" y2="800" style="stroke:black;stroke-width:2" />
<rect x="229" y="800" width="50" height="10" style="fill:black;stroke:black;stroke-width:2"/>
<rect x="408" y="0" width="100" height="20" style="fill:white;stroke:black;stroke-width:2"/>
<text x="458" y="15" text-anchor="middle" style="font-family: Arial, Helvetica, sans-serif">
(x37,1)</text>
<line x1="458" y1="20" x2="458" y2="800" style="stroke:black;stroke-width:2" />
<rect x="433" y="800" width="50" height="10" style="fill:black;stroke:black;stroke-width:2"/>
<rect x="612" y="0" width="100" height="20" style="fill:white;stroke:black;stroke-width:2"/>
<text x="662" y="15" text-anchor="middle" style="font-family: Arial, Helvetica, sans-serif">
(s,1)</text>
<line x1="662" y1="20" x2="662" y2="800" style="stroke:black;stroke-width:2" />
<rect x="637" y="800" width="50" height="10" style="fill:black;stroke:black;stroke-width:2"/>
<rect x="816" y="0" width="100" height="20" style="fill:white;stroke:black;stroke-width:2"/>
<text x="866" y="15" text-anchor="middle" style="font-family: Arial, Helvetica, sans-serif">
(x37,2)</text>
<line x1="866" y1="20" x2="866" y2="800" style="stroke:black;stroke-width:2" />
<rect x="841" y="800" width="50" height="10" style="fill:black;stroke:black;stroke-width:2"/>
<rect x="1020" y="0" width="100" height="20" style="fill:white;stroke:black;stroke-width:2"/>
<text x="1070" y="15" text-anchor="middle" style="font-family: Arial, Helvetica, sans-serif">
icanproducesecretPayload(6)</text>
<line x1="1070" y1="20" x2="1070" y2="800" style="stroke:black;stroke-width:2" />
<rect x="1045" y="800" width="50" height="10" style="fill:black;stroke:black;stroke-width:2"/>
<line x1="50.0" y1="50" x2="254.0" y2="50" style="stroke:black;stroke-width:2" />
<line x1="244.0" y1="40" x2="254.0" y2="50" style="stroke:black;stroke-width:2" />
<line x1="244.0" y1="60" x2="254.0" y2="50" style="stroke:black;stroke-width:2" />
<text x="152.0" y="45" text-anchor="middle" style="font-family: Arial, Helvetica, sans-serif"> {x38,x37,NA(1),KAB(1)}_(pk(x37))</text>
<line x1="254.0" y1="100" x2="458.0" y2="100" style="stroke:black;stroke-width:2" />
<line x1="448.0" y1="90" x2="458.0" y2="100" style="stroke:black;stroke-width:2" />
<line x1="448.0" y1="110" x2="458.0" y2="100" style="stroke:black;stroke-width:2" />
<text x="356.0" y="95" text-anchor="middle" style="font-family: Arial, Helvetica, sans-serif"> {x38,x37,NA(1),KAB(1)}_(pk(x37))</text>
<line x1="254.0" y1="150" x2="458.0" y2="150" style="stroke:black;stroke-width:2" />
<line x1="264.0" y1="140" x2="254.0" y2="150" style="stroke:black;stroke-width:2" />
<line x1="264.0" y1="160" x2="254.0" y2="150" style="stroke:black;stroke-width:2" />
<text x="356.0" y="145" text-anchor="middle" style="font-family: Arial, Helvetica, sans-serif"> {|x38,x37,NA(1)|}_KAB(1)</text>
<line x1="50.0" y1="200" x2="254.0" y2="200" style="stroke:black;stroke-width:2" />
<line x1="60.0" y1="190" x2="50.0" y2="200" style="stroke:black;stroke-width:2" />
<line x1="60.0" y1="210" x2="50.0" y2="200" style="stroke:black;stroke-width:2" />
<text x="152.0" y="195" text-anchor="middle" style="font-family: Arial, Helvetica, sans-serif"> {|x38,x37,NA(1)|}_KAB(1)</text>
<line x1="50.0" y1="250" x2="254.0" y2="250" style="stroke:black;stroke-width:2" />
<line x1="244.0" y1="240" x2="254.0" y2="250" style="stroke:black;stroke-width:2" />
<line x1="244.0" y1="260" x2="254.0" y2="250" style="stroke:black;stroke-width:2" />
<text x="152.0" y="245" text-anchor="middle" style="font-family: Arial, Helvetica, sans-serif"> {|x38,x37,NA(1)|}_(sk(x38,s))</text>
<line x1="254.0" y1="300" x2="662.0" y2="300" style="stroke:black;stroke-width:2" />
<line x1="652.0" y1="290" x2="662.0" y2="300" style="stroke:black;stroke-width:2" />
<line x1="652.0" y1="310" x2="662.0" y2="300" style="stroke:black;stroke-width:2" />
<text x="458.0" y="295" text-anchor="middle" style="font-family: Arial, Helvetica, sans-serif"> {|x38,x37,NA(1)|}_(sk(x38,s))</text>
<line x1="254.0" y1="350" x2="662.0" y2="350" style="stroke:black;stroke-width:2" />
<line x1="264.0" y1="340" x2="254.0" y2="350" style="stroke:black;stroke-width:2" />
<line x1="264.0" y1="360" x2="254.0" y2="350" style="stroke:black;stroke-width:2" />
<text x="458.0" y="345" text-anchor="middle" style="font-family: Arial, Helvetica, sans-serif"> {x38,x37,NA(1),s}_inv(pk(s))</text>
<line x1="254.0" y1="400" x2="866.0" y2="400" style="stroke:black;stroke-width:2" />
<line x1="856.0" y1="390" x2="866.0" y2="400" style="stroke:black;stroke-width:2" />
<line x1="856.0" y1="410" x2="866.0" y2="400" style="stroke:black;stroke-width:2" />
<text x="560.0" y="395" text-anchor="middle" style="font-family: Arial, Helvetica, sans-serif"> {x38,x37,NA(1),x608}_(pk(x37))</text>
<line x1="254.0" y1="450" x2="866.0" y2="450" style="stroke:black;stroke-width:2" />
<line x1="264.0" y1="440" x2="254.0" y2="450" style="stroke:black;stroke-width:2" />
<line x1="264.0" y1="460" x2="254.0" y2="450" style="stroke:black;stroke-width:2" />
<text x="560.0" y="445" text-anchor="middle" style="font-family: Arial, Helvetica, sans-serif"> {|x38,x37,NA(1)|}_x608</text>
<line x1="254.0" y1="500" x2="866.0" y2="500" style="stroke:black;stroke-width:2" />
<line x1="856.0" y1="490" x2="866.0" y2="500" style="stroke:black;stroke-width:2" />
<line x1="856.0" y1="510" x2="866.0" y2="500" style="stroke:black;stroke-width:2" />
<text x="560.0" y="495" text-anchor="middle" style="font-family: Arial, Helvetica, sans-serif"> {x38,x37,NA(1),s}_inv(pk(s))</text>
<line x1="254.0" y1="550" x2="866.0" y2="550" style="stroke:black;stroke-width:2" />
<line x1="264.0" y1="540" x2="254.0" y2="550" style="stroke:black;stroke-width:2" />
<line x1="264.0" y1="560" x2="254.0" y2="550" style="stroke:black;stroke-width:2" />
<text x="560.0" y="545" text-anchor="middle" style="font-family: Arial, Helvetica, sans-serif"> {|x38,x37,NA(1),Payload(6)|}_x608</text>
<line x1="1070.0" y1="600" x2="1070.0" y2="600" style="stroke:black;stroke-width:2" />
<line x1="1080.0" y1="590" x2="1070.0" y2="600" style="stroke:black;stroke-width:2" />
<line x1="1080.0" y1="610" x2="1070.0" y2="600" style="stroke:black;stroke-width:2" />
<text x="1070.0" y="595" text-anchor="middle" style="font-family: Arial, Helvetica, sans-serif">i can produce secret Payload(6)</text>
</svg>