<svg xmlns="http://www.w3.org/2000/svg" version="1.1">
<rect x="0" y="0" width="100" height="20" style="fill:white;stroke:black;stroke-width:2"/>
<text x="50" y="15" text-anchor="middle" style="font-family: Arial, Helvetica, sans-serif">
(x802,1)</text>
<line x1="50" y1="20" x2="50" y2="600" style="stroke:black;stroke-width:2" />
<rect x="25" y="600" width="50" height="10" style="fill:black;stroke:black;stroke-width:2"/>
<rect x="552" y="0" width="100" height="20" style="fill:white;stroke:black;stroke-width:2"/>
<text x="602" y="15" text-anchor="middle" style="font-family: Arial, Helvetica, sans-serif">
i</text>
<line x1="602" y1="20" x2="602" y2="600" style="stroke:black;stroke-width:2" />
<rect x="577" y="600" width="50" height="10" style="fill:black;stroke:black;stroke-width:2"/>
<rect x="1104" y="0" width="100" height="20" style="fill:white;stroke:black;stroke-width:2"/>
<text x="1154" y="15" text-anchor="middle" style="font-family: Arial, Helvetica, sans-serif">
(x801,1)</text>
<line x1="1154" y1="20" x2="1154" y2="600" style="stroke:black;stroke-width:2" />
<rect x="1129" y="600" width="50" height="10" style="fill:black;stroke:black;stroke-width:2"/>
<rect x="1656" y="0" width="100" height="20" style="fill:white;stroke:black;stroke-width:2"/>
<text x="1706" y="15" text-anchor="middle" style="font-family: Arial, Helvetica, sans-serif">
(x801,2)</text>
<line x1="1706" y1="20" x2="1706" y2="600" style="stroke:black;stroke-width:2" />
<rect x="1681" y="600" width="50" height="10" style="fill:black;stroke:black;stroke-width:2"/>
<rect x="2208" y="0" width="100" height="20" style="fill:white;stroke:black;stroke-width:2"/>
<text x="2258" y="15" text-anchor="middle" style="font-family: Arial, Helvetica, sans-serif">
(hm,1)</text>
<line x1="2258" y1="20" x2="2258" y2="600" style="stroke:black;stroke-width:2" />
<rect x="2233" y="600" width="50" height="10" style="fill:black;stroke:black;stroke-width:2"/>
<line x1="50.0" y1="50" x2="602.0" y2="50" style="stroke:black;stroke-width:2" />
<line x1="592.0" y1="40" x2="602.0" y2="50" style="stroke:black;stroke-width:2" />
<line x1="592.0" y1="60" x2="602.0" y2="50" style="stroke:black;stroke-width:2" />
<text x="326.0" y="45" text-anchor="middle" style="font-family: Arial, Helvetica, sans-serif"> x802,x801,exp(g,X(1)),{|x802,x801,exp(g,X(1))|}_(ck(x802,hm))</text>
<line x1="602.0" y1="100" x2="1154.0" y2="100" style="stroke:black;stroke-width:2" />
<line x1="1144.0" y1="90" x2="1154.0" y2="100" style="stroke:black;stroke-width:2" />
<line x1="1144.0" y1="110" x2="1154.0" y2="100" style="stroke:black;stroke-width:2" />
<text x="878.0" y="95" text-anchor="middle" style="font-family: Arial, Helvetica, sans-serif"> x802,x801,g,x308</text>
<line x1="602.0" y1="150" x2="1154.0" y2="150" style="stroke:black;stroke-width:2" />
<line x1="612.0" y1="140" x2="602.0" y2="150" style="stroke:black;stroke-width:2" />
<line x1="612.0" y1="160" x2="602.0" y2="150" style="stroke:black;stroke-width:2" />
<text x="878.0" y="145" text-anchor="middle" style="font-family: Arial, Helvetica, sans-serif"> {|x802,x801,g,exp(g,Y(2)),x308|}_(ck(x801,hm))</text>
<line x1="602.0" y1="200" x2="1706.0" y2="200" style="stroke:black;stroke-width:2" />
<line x1="1696.0" y1="190" x2="1706.0" y2="200" style="stroke:black;stroke-width:2" />
<line x1="1696.0" y1="210" x2="1706.0" y2="200" style="stroke:black;stroke-width:2" />
<text x="1154.0" y="195" text-anchor="middle" style="font-family: Arial, Helvetica, sans-serif"> x802,x801,exp(g,X(1)),{|x802,x801,exp(g,X(1))|}_(ck(x802,hm))</text>
<line x1="602.0" y1="250" x2="1706.0" y2="250" style="stroke:black;stroke-width:2" />
<line x1="612.0" y1="240" x2="602.0" y2="250" style="stroke:black;stroke-width:2" />
<line x1="612.0" y1="260" x2="602.0" y2="250" style="stroke:black;stroke-width:2" />
<text x="1154.0" y="245" text-anchor="middle" style="font-family: Arial, Helvetica, sans-serif"> {|x802,x801,exp(g,X(1)),exp(g,Y(3)),{|x802,x801,exp(g,X(1))|}_(ck(x802,hm))|}_(ck(x801,hm))</text>
<line x1="602.0" y1="300" x2="2258.0" y2="300" style="stroke:black;stroke-width:2" />
<line x1="2248.0" y1="290" x2="2258.0" y2="300" style="stroke:black;stroke-width:2" />
<line x1="2248.0" y1="310" x2="2258.0" y2="300" style="stroke:black;stroke-width:2" />
<text x="1430.0" y="295" text-anchor="middle" style="font-family: Arial, Helvetica, sans-serif"> {|x802,x801,exp(g,X(1)),exp(g,Y(3)),{|x802,x801,exp(g,X(1))|}_(ck(x802,hm))|}_(ck(x801,hm))</text>
<line x1="602.0" y1="350" x2="2258.0" y2="350" style="stroke:black;stroke-width:2" />
<line x1="612.0" y1="340" x2="602.0" y2="350" style="stroke:black;stroke-width:2" />
<line x1="612.0" y1="360" x2="602.0" y2="350" style="stroke:black;stroke-width:2" />
<text x="1430.0" y="345" text-anchor="middle" style="font-family: Arial, Helvetica, sans-serif"> {|x801,x802,{|x801,x802,exp(g,X(1)),exp(g,Y(3))|}_(sk(x802,hm))|}_(sk(x801,hm))</text>
<line x1="602.0" y1="400" x2="1154.0" y2="400" style="stroke:black;stroke-width:2" />
<line x1="1144.0" y1="390" x2="1154.0" y2="400" style="stroke:black;stroke-width:2" />
<line x1="1144.0" y1="410" x2="1154.0" y2="400" style="stroke:black;stroke-width:2" />
<text x="878.0" y="395" text-anchor="middle" style="font-family: Arial, Helvetica, sans-serif"> {|x801,x802,{|x801,x802,exp(g,X(1)),exp(g,Y(3))|}_(sk(x802,hm))|}_(sk(x801,hm))</text>
<line x1="602.0" y1="450" x2="1154.0" y2="450" style="stroke:black;stroke-width:2" />
<line x1="612.0" y1="440" x2="602.0" y2="450" style="stroke:black;stroke-width:2" />
<line x1="612.0" y1="460" x2="602.0" y2="450" style="stroke:black;stroke-width:2" />
<text x="878.0" y="445" text-anchor="middle" style="font-family: Arial, Helvetica, sans-serif"> exp(g,Y(2)),{|x801,x802,exp(g,X(1)),exp(g,Y(3))|}_(sk(x802,hm))</text>
<line x1="602.0" y1="500" x2="1154.0" y2="500" style="stroke:black;stroke-width:2" />
<line x1="1144.0" y1="490" x2="1154.0" y2="500" style="stroke:black;stroke-width:2" />
<line x1="1144.0" y1="510" x2="1154.0" y2="500" style="stroke:black;stroke-width:2" />
<text x="878.0" y="495" text-anchor="middle" style="font-family: Arial, Helvetica, sans-serif"> {|x711|}_(exp(g,Y(2)))</text>
</svg>