<svg xmlns="http://www.w3.org/2000/svg" version="1.1">
<rect x="0" y="0" width="100" height="20" style="fill:white;stroke:black;stroke-width:2"/>
<text x="50" y="15" text-anchor="middle" style="font-family: Arial, Helvetica, sans-serif">
(x30,1)</text>
<line x1="50" y1="20" x2="50" y2="700" style="stroke:black;stroke-width:2" />
<rect x="25" y="700" width="50" height="10" style="fill:black;stroke:black;stroke-width:2"/>
<rect x="216" y="0" width="100" height="20" style="fill:white;stroke:black;stroke-width:2"/>
<text x="266" y="15" text-anchor="middle" style="font-family: Arial, Helvetica, sans-serif">
i</text>
<line x1="266" y1="20" x2="266" y2="700" style="stroke:black;stroke-width:2" />
<rect x="241" y="700" width="50" height="10" style="fill:black;stroke:black;stroke-width:2"/>
<rect x="432" y="0" width="100" height="20" style="fill:white;stroke:black;stroke-width:2"/>
<text x="482" y="15" text-anchor="middle" style="font-family: Arial, Helvetica, sans-serif">
(x31,1)</text>
<line x1="482" y1="20" x2="482" y2="700" style="stroke:black;stroke-width:2" />
<rect x="457" y="700" width="50" height="10" style="fill:black;stroke:black;stroke-width:2"/>
<rect x="648" y="0" width="100" height="20" style="fill:white;stroke:black;stroke-width:2"/>
<text x="698" y="15" text-anchor="middle" style="font-family: Arial, Helvetica, sans-serif">
(s,1)</text>
<line x1="698" y1="20" x2="698" y2="700" style="stroke:black;stroke-width:2" />
<rect x="673" y="700" width="50" height="10" style="fill:black;stroke:black;stroke-width:2"/>
<rect x="864" y="0" width="100" height="20" style="fill:white;stroke:black;stroke-width:2"/>
<text x="914" y="15" text-anchor="middle" style="font-family: Arial, Helvetica, sans-serif">
icanproducesecretPayload(5)</text>
<line x1="914" y1="20" x2="914" y2="700" style="stroke:black;stroke-width:2" />
<rect x="889" y="700" width="50" height="10" style="fill:black;stroke:black;stroke-width:2"/>
<line x1="50.0" y1="50" x2="266.0" y2="50" style="stroke:black;stroke-width:2" />
<line x1="256.0" y1="40" x2="266.0" y2="50" style="stroke:black;stroke-width:2" />
<line x1="256.0" y1="60" x2="266.0" y2="50" style="stroke:black;stroke-width:2" />
<text x="158.0" y="45" text-anchor="middle" style="font-family: Arial, Helvetica, sans-serif"> {x30,x31,NA(1),KAB(1)}_(pk(x31))</text>
<line x1="266.0" y1="100" x2="482.0" y2="100" style="stroke:black;stroke-width:2" />
<line x1="472.0" y1="90" x2="482.0" y2="100" style="stroke:black;stroke-width:2" />
<line x1="472.0" y1="110" x2="482.0" y2="100" style="stroke:black;stroke-width:2" />
<text x="374.0" y="95" text-anchor="middle" style="font-family: Arial, Helvetica, sans-serif"> {x30,x31,NA(1),KAB(1)}_(pk(x31))</text>
<line x1="266.0" y1="150" x2="482.0" y2="150" style="stroke:black;stroke-width:2" />
<line x1="276.0" y1="140" x2="266.0" y2="150" style="stroke:black;stroke-width:2" />
<line x1="276.0" y1="160" x2="266.0" y2="150" style="stroke:black;stroke-width:2" />
<text x="374.0" y="145" text-anchor="middle" style="font-family: Arial, Helvetica, sans-serif"> {|x30,x31,NA(1)|}_KAB(1)</text>
<line x1="50.0" y1="200" x2="266.0" y2="200" style="stroke:black;stroke-width:2" />
<line x1="60.0" y1="190" x2="50.0" y2="200" style="stroke:black;stroke-width:2" />
<line x1="60.0" y1="210" x2="50.0" y2="200" style="stroke:black;stroke-width:2" />
<text x="158.0" y="195" text-anchor="middle" style="font-family: Arial, Helvetica, sans-serif"> {|x30,x31,NA(1)|}_KAB(1)</text>
<line x1="50.0" y1="250" x2="266.0" y2="250" style="stroke:black;stroke-width:2" />
<line x1="256.0" y1="240" x2="266.0" y2="250" style="stroke:black;stroke-width:2" />
<line x1="256.0" y1="260" x2="266.0" y2="250" style="stroke:black;stroke-width:2" />
<text x="158.0" y="245" text-anchor="middle" style="font-family: Arial, Helvetica, sans-serif"> {|x30,NA(1),KAB(1)|}_(sk(x30,s))</text>
<line x1="266.0" y1="300" x2="698.0" y2="300" style="stroke:black;stroke-width:2" />
<line x1="688.0" y1="290" x2="698.0" y2="300" style="stroke:black;stroke-width:2" />
<line x1="688.0" y1="310" x2="698.0" y2="300" style="stroke:black;stroke-width:2" />
<text x="482.0" y="295" text-anchor="middle" style="font-family: Arial, Helvetica, sans-serif"> {|x30,NA(1),KAB(1)|}_(sk(x30,s))</text>
<line x1="266.0" y1="350" x2="698.0" y2="350" style="stroke:black;stroke-width:2" />
<line x1="276.0" y1="340" x2="266.0" y2="350" style="stroke:black;stroke-width:2" />
<line x1="276.0" y1="360" x2="266.0" y2="350" style="stroke:black;stroke-width:2" />
<text x="482.0" y="345" text-anchor="middle" style="font-family: Arial, Helvetica, sans-serif"> {x30,NA(1),KAB(1),s}_inv(pk(s))</text>
<line x1="266.0" y1="400" x2="482.0" y2="400" style="stroke:black;stroke-width:2" />
<line x1="472.0" y1="390" x2="482.0" y2="400" style="stroke:black;stroke-width:2" />
<line x1="472.0" y1="410" x2="482.0" y2="400" style="stroke:black;stroke-width:2" />
<text x="374.0" y="395" text-anchor="middle" style="font-family: Arial, Helvetica, sans-serif"> {x30,NA(1),KAB(1),s}_inv(pk(s))</text>
<line x1="266.0" y1="450" x2="482.0" y2="450" style="stroke:black;stroke-width:2" />
<line x1="276.0" y1="440" x2="266.0" y2="450" style="stroke:black;stroke-width:2" />
<line x1="276.0" y1="460" x2="266.0" y2="450" style="stroke:black;stroke-width:2" />
<text x="374.0" y="445" text-anchor="middle" style="font-family: Arial, Helvetica, sans-serif"> {|x30,x31,NA(1),Payload(5)|}_KAB(1)</text>
<line x1="914.0" y1="500" x2="914.0" y2="500" style="stroke:black;stroke-width:2" />
<line x1="924.0" y1="490" x2="914.0" y2="500" style="stroke:black;stroke-width:2" />
<line x1="924.0" y1="510" x2="914.0" y2="500" style="stroke:black;stroke-width:2" />
<text x="914.0" y="495" text-anchor="middle" style="font-family: Arial, Helvetica, sans-serif">i can produce secret Payload(5)</text>
</svg>