<svg xmlns="http://www.w3.org/2000/svg" version="1.1">
<rect x="0" y="0" width="100" height="20" style="fill:white;stroke:black;stroke-width:2"/>
<text x="50" y="15" text-anchor="middle" style="font-family: Arial, Helvetica, sans-serif">
(x902,1)</text>
<line x1="50" y1="20" x2="50" y2="750" style="stroke:black;stroke-width:2" />
<rect x="25" y="750" width="50" height="10" style="fill:black;stroke:black;stroke-width:2"/>
<rect x="288" y="0" width="100" height="20" style="fill:white;stroke:black;stroke-width:2"/>
<text x="338" y="15" text-anchor="middle" style="font-family: Arial, Helvetica, sans-serif">
i</text>
<line x1="338" y1="20" x2="338" y2="750" style="stroke:black;stroke-width:2" />
<rect x="313" y="750" width="50" height="10" style="fill:black;stroke:black;stroke-width:2"/>
<rect x="576" y="0" width="100" height="20" style="fill:white;stroke:black;stroke-width:2"/>
<text x="626" y="15" text-anchor="middle" style="font-family: Arial, Helvetica, sans-serif">
(x901,1)</text>
<line x1="626" y1="20" x2="626" y2="750" style="stroke:black;stroke-width:2" />
<rect x="601" y="750" width="50" height="10" style="fill:black;stroke:black;stroke-width:2"/>
<rect x="864" y="0" width="100" height="20" style="fill:white;stroke:black;stroke-width:2"/>
<text x="914" y="15" text-anchor="middle" style="font-family: Arial, Helvetica, sans-serif">
(x901,2)</text>
<line x1="914" y1="20" x2="914" y2="750" style="stroke:black;stroke-width:2" />
<rect x="889" y="750" width="50" height="10" style="fill:black;stroke:black;stroke-width:2"/>
<rect x="1152" y="0" width="100" height="20" style="fill:white;stroke:black;stroke-width:2"/>
<text x="1202" y="15" text-anchor="middle" style="font-family: Arial, Helvetica, sans-serif">
(s,2)</text>
<line x1="1202" y1="20" x2="1202" y2="750" style="stroke:black;stroke-width:2" />
<rect x="1177" y="750" width="50" height="10" style="fill:black;stroke:black;stroke-width:2"/>
<line x1="50.0" y1="50" x2="338.0" y2="50" style="stroke:black;stroke-width:2" />
<line x1="328.0" y1="40" x2="338.0" y2="50" style="stroke:black;stroke-width:2" />
<line x1="328.0" y1="60" x2="338.0" y2="50" style="stroke:black;stroke-width:2" />
<text x="194.0" y="45" text-anchor="middle" style="font-family: Arial, Helvetica, sans-serif"> {x902,x901,NA(1),KAB(1)}_(pk(x901))</text>
<line x1="338.0" y1="100" x2="626.0" y2="100" style="stroke:black;stroke-width:2" />
<line x1="616.0" y1="90" x2="626.0" y2="100" style="stroke:black;stroke-width:2" />
<line x1="616.0" y1="110" x2="626.0" y2="100" style="stroke:black;stroke-width:2" />
<text x="482.0" y="95" text-anchor="middle" style="font-family: Arial, Helvetica, sans-serif"> {x902,x901,NA(1),KAB(1)}_(pk(x901))</text>
<line x1="338.0" y1="150" x2="626.0" y2="150" style="stroke:black;stroke-width:2" />
<line x1="348.0" y1="140" x2="338.0" y2="150" style="stroke:black;stroke-width:2" />
<line x1="348.0" y1="160" x2="338.0" y2="150" style="stroke:black;stroke-width:2" />
<text x="482.0" y="145" text-anchor="middle" style="font-family: Arial, Helvetica, sans-serif"> {|x902,x901,NA(1)|}_KAB(1)</text>
<line x1="50.0" y1="200" x2="338.0" y2="200" style="stroke:black;stroke-width:2" />
<line x1="60.0" y1="190" x2="50.0" y2="200" style="stroke:black;stroke-width:2" />
<line x1="60.0" y1="210" x2="50.0" y2="200" style="stroke:black;stroke-width:2" />
<text x="194.0" y="195" text-anchor="middle" style="font-family: Arial, Helvetica, sans-serif"> {|x902,x901,NA(1)|}_KAB(1)</text>
<line x1="50.0" y1="250" x2="338.0" y2="250" style="stroke:black;stroke-width:2" />
<line x1="328.0" y1="240" x2="338.0" y2="250" style="stroke:black;stroke-width:2" />
<line x1="328.0" y1="260" x2="338.0" y2="250" style="stroke:black;stroke-width:2" />
<text x="194.0" y="245" text-anchor="middle" style="font-family: Arial, Helvetica, sans-serif"> {|x902,{KAB(1)}_(pk(x901)),NA(1)|}_(sk(x902,s))</text>
<line x1="338.0" y1="300" x2="914.0" y2="300" style="stroke:black;stroke-width:2" />
<line x1="904.0" y1="290" x2="914.0" y2="300" style="stroke:black;stroke-width:2" />
<line x1="904.0" y1="310" x2="914.0" y2="300" style="stroke:black;stroke-width:2" />
<text x="626.0" y="295" text-anchor="middle" style="font-family: Arial, Helvetica, sans-serif"> {x902,x901,NA(1),KAB(1)}_(pk(x901))</text>
<line x1="338.0" y1="350" x2="914.0" y2="350" style="stroke:black;stroke-width:2" />
<line x1="348.0" y1="340" x2="338.0" y2="350" style="stroke:black;stroke-width:2" />
<line x1="348.0" y1="360" x2="338.0" y2="350" style="stroke:black;stroke-width:2" />
<text x="626.0" y="345" text-anchor="middle" style="font-family: Arial, Helvetica, sans-serif"> {|x902,x901,NA(1)|}_KAB(1)</text>
<line x1="338.0" y1="400" x2="1202.0" y2="400" style="stroke:black;stroke-width:2" />
<line x1="1192.0" y1="390" x2="1202.0" y2="400" style="stroke:black;stroke-width:2" />
<line x1="1192.0" y1="410" x2="1202.0" y2="400" style="stroke:black;stroke-width:2" />
<text x="770.0" y="395" text-anchor="middle" style="font-family: Arial, Helvetica, sans-serif"> {|x902,{KAB(1)}_(pk(x901)),NA(1)|}_(sk(x902,s))</text>
<line x1="338.0" y1="450" x2="1202.0" y2="450" style="stroke:black;stroke-width:2" />
<line x1="348.0" y1="440" x2="338.0" y2="450" style="stroke:black;stroke-width:2" />
<line x1="348.0" y1="460" x2="338.0" y2="450" style="stroke:black;stroke-width:2" />
<text x="770.0" y="445" text-anchor="middle" style="font-family: Arial, Helvetica, sans-serif"> {x902,{KAB(1)}_(pk(x901)),NA(1),s}_inv(pk(s))</text>
<line x1="338.0" y1="500" x2="626.0" y2="500" style="stroke:black;stroke-width:2" />
<line x1="616.0" y1="490" x2="626.0" y2="500" style="stroke:black;stroke-width:2" />
<line x1="616.0" y1="510" x2="626.0" y2="500" style="stroke:black;stroke-width:2" />
<text x="482.0" y="495" text-anchor="middle" style="font-family: Arial, Helvetica, sans-serif"> {x902,{KAB(1)}_(pk(x901)),NA(1),s}_inv(pk(s))</text>
<line x1="338.0" y1="550" x2="626.0" y2="550" style="stroke:black;stroke-width:2" />
<line x1="348.0" y1="540" x2="338.0" y2="550" style="stroke:black;stroke-width:2" />
<line x1="348.0" y1="560" x2="338.0" y2="550" style="stroke:black;stroke-width:2" />
<text x="482.0" y="545" text-anchor="middle" style="font-family: Arial, Helvetica, sans-serif"> {|x902,x901,NA(1),Payload(6)|}_KAB(1)</text>
<line x1="338.0" y1="600" x2="914.0" y2="600" style="stroke:black;stroke-width:2" />
<line x1="904.0" y1="590" x2="914.0" y2="600" style="stroke:black;stroke-width:2" />
<line x1="904.0" y1="610" x2="914.0" y2="600" style="stroke:black;stroke-width:2" />
<text x="626.0" y="595" text-anchor="middle" style="font-family: Arial, Helvetica, sans-serif"> {x902,{KAB(1)}_(pk(x901)),NA(1),s}_inv(pk(s))</text>
<line x1="338.0" y1="650" x2="914.0" y2="650" style="stroke:black;stroke-width:2" />
<line x1="348.0" y1="640" x2="338.0" y2="650" style="stroke:black;stroke-width:2" />
<line x1="348.0" y1="660" x2="338.0" y2="650" style="stroke:black;stroke-width:2" />
<text x="626.0" y="645" text-anchor="middle" style="font-family: Arial, Helvetica, sans-serif"> {|x902,x901,NA(1),Payload(7)|}_KAB(1)</text>
</svg>