<svg xmlns="http://www.w3.org/2000/svg" version="1.1">
<rect x="0" y="0" width="100" height="20" style="fill:white;stroke:black;stroke-width:2"/>
<text x="50" y="15" text-anchor="middle" style="font-family: Arial, Helvetica, sans-serif">
(x802,1)</text>
<line x1="50" y1="20" x2="50" y2="550" style="stroke:black;stroke-width:2" />
<rect x="25" y="550" width="50" height="10" style="fill:black;stroke:black;stroke-width:2"/>
<rect x="210" y="0" width="100" height="20" style="fill:white;stroke:black;stroke-width:2"/>
<text x="260" y="15" text-anchor="middle" style="font-family: Arial, Helvetica, sans-serif">
i</text>
<line x1="260" y1="20" x2="260" y2="550" style="stroke:black;stroke-width:2" />
<rect x="235" y="550" width="50" height="10" style="fill:black;stroke:black;stroke-width:2"/>
<rect x="420" y="0" width="100" height="20" style="fill:white;stroke:black;stroke-width:2"/>
<text x="470" y="15" text-anchor="middle" style="font-family: Arial, Helvetica, sans-serif">
(s,1)</text>
<line x1="470" y1="20" x2="470" y2="550" style="stroke:black;stroke-width:2" />
<rect x="445" y="550" width="50" height="10" style="fill:black;stroke:black;stroke-width:2"/>
<rect x="630" y="0" width="100" height="20" style="fill:white;stroke:black;stroke-width:2"/>
<text x="680" y="15" text-anchor="middle" style="font-family: Arial, Helvetica, sans-serif">
(s,2)</text>
<line x1="680" y1="20" x2="680" y2="550" style="stroke:black;stroke-width:2" />
<rect x="655" y="550" width="50" height="10" style="fill:black;stroke:black;stroke-width:2"/>
<line x1="50.0" y1="50" x2="260.0" y2="50" style="stroke:black;stroke-width:2" />
<line x1="250.0" y1="40" x2="260.0" y2="50" style="stroke:black;stroke-width:2" />
<line x1="250.0" y1="60" x2="260.0" y2="50" style="stroke:black;stroke-width:2" />
<text x="155.0" y="45" text-anchor="middle" style="font-family: Arial, Helvetica, sans-serif"> {KCS(1),sk(x802,s)}_(pk(s))</text>
<line x1="260.0" y1="100" x2="470.0" y2="100" style="stroke:black;stroke-width:2" />
<line x1="460.0" y1="90" x2="470.0" y2="100" style="stroke:black;stroke-width:2" />
<line x1="460.0" y1="110" x2="470.0" y2="100" style="stroke:black;stroke-width:2" />
<text x="365.0" y="95" text-anchor="middle" style="font-family: Arial, Helvetica, sans-serif"> {KCS(1),sk(x802,s)}_(pk(s))</text>
<line x1="260.0" y1="150" x2="470.0" y2="150" style="stroke:black;stroke-width:2" />
<line x1="270.0" y1="140" x2="260.0" y2="150" style="stroke:black;stroke-width:2" />
<line x1="270.0" y1="160" x2="260.0" y2="150" style="stroke:black;stroke-width:2" />
<text x="365.0" y="145" text-anchor="middle" style="font-family: Arial, Helvetica, sans-serif"> {|sk(x802,s),sessionToken|}_KCS(1)</text>
<line x1="50.0" y1="200" x2="260.0" y2="200" style="stroke:black;stroke-width:2" />
<line x1="60.0" y1="190" x2="50.0" y2="200" style="stroke:black;stroke-width:2" />
<line x1="60.0" y1="210" x2="50.0" y2="200" style="stroke:black;stroke-width:2" />
<text x="155.0" y="195" text-anchor="middle" style="font-family: Arial, Helvetica, sans-serif"> {|sk(x802,s),sessionToken|}_KCS(1)</text>
<line x1="50.0" y1="250" x2="260.0" y2="250" style="stroke:black;stroke-width:2" />
<line x1="250.0" y1="240" x2="260.0" y2="250" style="stroke:black;stroke-width:2" />
<line x1="250.0" y1="260" x2="260.0" y2="250" style="stroke:black;stroke-width:2" />
<text x="155.0" y="245" text-anchor="middle" style="font-family: Arial, Helvetica, sans-serif"> {|sessionToken,Payload(3)|}_KCS(1)</text>
<line x1="260.0" y1="300" x2="470.0" y2="300" style="stroke:black;stroke-width:2" />
<line x1="460.0" y1="290" x2="470.0" y2="300" style="stroke:black;stroke-width:2" />
<line x1="460.0" y1="310" x2="470.0" y2="300" style="stroke:black;stroke-width:2" />
<text x="365.0" y="295" text-anchor="middle" style="font-family: Arial, Helvetica, sans-serif"> {|sessionToken,Payload(3)|}_KCS(1)</text>
<line x1="260.0" y1="350" x2="680.0" y2="350" style="stroke:black;stroke-width:2" />
<line x1="670.0" y1="340" x2="680.0" y2="350" style="stroke:black;stroke-width:2" />
<line x1="670.0" y1="360" x2="680.0" y2="350" style="stroke:black;stroke-width:2" />
<text x="470.0" y="345" text-anchor="middle" style="font-family: Arial, Helvetica, sans-serif"> {KCS(1),sk(x802,s)}_(pk(s))</text>
<line x1="260.0" y1="400" x2="680.0" y2="400" style="stroke:black;stroke-width:2" />
<line x1="270.0" y1="390" x2="260.0" y2="400" style="stroke:black;stroke-width:2" />
<line x1="270.0" y1="410" x2="260.0" y2="400" style="stroke:black;stroke-width:2" />
<text x="470.0" y="395" text-anchor="middle" style="font-family: Arial, Helvetica, sans-serif"> {|sk(x802,s),sessionToken|}_KCS(1)</text>
<line x1="260.0" y1="450" x2="680.0" y2="450" style="stroke:black;stroke-width:2" />
<line x1="670.0" y1="440" x2="680.0" y2="450" style="stroke:black;stroke-width:2" />
<line x1="670.0" y1="460" x2="680.0" y2="450" style="stroke:black;stroke-width:2" />
<text x="470.0" y="445" text-anchor="middle" style="font-family: Arial, Helvetica, sans-serif"> {|sessionToken,Payload(3)|}_KCS(1)</text>
</svg>